<svg width="22" height="22" viewBox="0 0 22 22" fill="#6349e0" xmlns="http://www.w3.org/2000/svg">
<path d="M21.7075 20.2925C21.8004 20.3854 21.8741 20.4957 21.9244 20.6171C21.9747 20.7385 22.0005 20.8686 22.0005 21C22.0005 21.1314 21.9747 21.2615 21.9244 21.3829C21.8741 21.5043 21.8004 21.6146 21.7075 21.7075C21.6146 21.8004 21.5043 21.8741 21.3829 21.9244C21.2615 21.9747 21.1314 22.0006 21 22.0006C20.8686 22.0006 20.7385 21.9747 20.6171 21.9244C20.4957 21.8741 20.3854 21.8004 20.2925 21.7075L10.2925 11.7075C10.1995 11.6146 10.1258 11.5043 10.0754 11.3829C10.0251 11.2615 9.99921 11.1314 9.99921 11C9.99921 10.8686 10.0251 10.7385 10.0754 10.6171C10.1258 10.4957 10.1995 10.3854 10.2925 10.2925L20.2925 0.292507C20.4801 0.104866 20.7346 -0.000549322 21 -0.000549316C21.2654 -0.000549311 21.5199 0.104866 21.7075 0.292507C21.8951 0.480147 22.0005 0.734643 22.0005 1.00001C22.0005 1.26537 21.8951 1.51987 21.7075 1.70751L12.4137 11L21.7075 20.2925ZM2.41374 11L11.7075 1.70751C11.8951 1.51987 12.0006 1.26537 12.0006 1.00001C12.0006 0.734643 11.8951 0.480147 11.7075 0.292507C11.5199 0.104866 11.2654 -0.000549314 11 -0.000549316C10.7346 -0.000549318 10.4801 0.104866 10.2925 0.292507L0.292493 10.2925C0.199517 10.3854 0.125758 10.4957 0.0754335 10.6171C0.0251092 10.7385 -0.000793457 10.8686 -0.000793457 11C-0.000793457 11.1314 0.0251092 11.2615 0.0754335 11.3829C0.125758 11.5043 0.199517 11.6146 0.292493 11.7075L10.2925 21.7075C10.3854 21.8004 10.4957 21.8741 10.6171 21.9244C10.7385 21.9747 10.8686 22.0006 11 22.0006C11.1314 22.0006 11.2615 21.9747 11.3829 21.9244C11.5043 21.8741 11.6146 21.8004 11.7075 21.7075C11.8004 21.6146 11.8741 21.5043 11.9244 21.3829C11.9747 21.2615 12.0006 21.1314 12.0006 21C12.0006 20.8686 11.9747 20.7385 11.9244 20.6171C11.8741 20.4957 11.8004 20.3854 11.7075 20.2925L2.41374 11Z"/>
</svg>
