<svg width="22" height="22" viewBox="0 0 22 22" fill="#6349e0" xmlns="http://www.w3.org/2000/svg">
<path d="M11.7075 11.7075L1.70751 21.7075C1.51987 21.8951 1.26537 22.0006 1.00001 22.0006C0.734643 22.0006 0.480147 21.8951 0.292507 21.7075C0.104866 21.5199 -0.000549311 21.2654 -0.000549316 21C-0.000549322 20.7346 0.104866 20.4801 0.292507 20.2925L9.58626 11L0.292507 1.70751C0.104866 1.51987 -0.000549316 1.26537 -0.000549316 1.00001C-0.000549316 0.734643 0.104866 0.480147 0.292507 0.292507C0.480147 0.104866 0.734643 -0.000549316 1.00001 -0.000549316C1.26537 -0.000549316 1.51987 0.104866 1.70751 0.292507L11.7075 10.2925C11.8005 10.3854 11.8742 10.4957 11.9246 10.6171C11.9749 10.7385 12.0008 10.8686 12.0008 11C12.0008 11.1314 11.9749 11.2615 11.9246 11.3829C11.8742 11.5043 11.8005 11.6146 11.7075 11.7075ZM21.7075 10.2925L11.7075 0.292507C11.5199 0.104866 11.2654 -0.000549316 11 -0.000549316C10.7346 -0.000549316 10.4801 0.104866 10.2925 0.292507C10.1049 0.480147 9.99945 0.734643 9.99945 1.00001C9.99945 1.26537 10.1049 1.51987 10.2925 1.70751L19.5863 11L10.2925 20.2925C10.1049 20.4801 9.99945 20.7346 9.99945 21C9.99945 21.2654 10.1049 21.5199 10.2925 21.7075C10.4801 21.8951 10.7346 22.0006 11 22.0006C11.2654 22.0006 11.5199 21.8951 11.7075 21.7075L21.7075 11.7075C21.8005 11.6146 21.8742 11.5043 21.9246 11.3829C21.9749 11.2615 22.0008 11.1314 22.0008 11C22.0008 10.8686 21.9749 10.7385 21.9246 10.6171C21.8742 10.4957 21.8005 10.3854 21.7075 10.2925Z"/>
</svg>
