<svg width="22" height="22" viewBox="0 0 22 22" fill="#6349e0" xmlns="http://www.w3.org/2000/svg">
<path d="M21.7075 20.2925C21.8004 20.3854 21.8741 20.4957 21.9244 20.6171C21.9747 20.7385 22.0006 20.8686 22.0006 21C22.0006 21.1314 21.9747 21.2615 21.9244 21.3829C21.8741 21.5043 21.8004 21.6146 21.7075 21.7075C21.6146 21.8004 21.5043 21.8741 21.3829 21.9244C21.2615 21.9747 21.1314 22.0005 21 22.0005C20.8686 22.0005 20.7385 21.9747 20.6171 21.9244C20.4957 21.8741 20.3854 21.8004 20.2925 21.7075L11 12.4137L1.70751 21.7075C1.51987 21.8951 1.26537 22.0005 1.00001 22.0005C0.734643 22.0005 0.480147 21.8951 0.292507 21.7075C0.104866 21.5199 -0.000549311 21.2654 -0.000549316 21C-0.000549322 20.7346 0.104866 20.4801 0.292507 20.2925L10.2925 10.2925C10.3854 10.1995 10.4957 10.1258 10.6171 10.0754C10.7385 10.0251 10.8686 9.99921 11 9.99921C11.1314 9.99921 11.2615 10.0251 11.3829 10.0754C11.5043 10.1258 11.6146 10.1995 11.7075 10.2925L21.7075 20.2925ZM1.70751 11.7075L11 2.41374L20.2925 11.7075C20.3854 11.8004 20.4957 11.8741 20.6171 11.9244C20.7385 11.9747 20.8686 12.0006 21 12.0006C21.1314 12.0006 21.2615 11.9747 21.3829 11.9244C21.5043 11.8741 21.6146 11.8004 21.7075 11.7075C21.8004 11.6146 21.8741 11.5043 21.9244 11.3829C21.9747 11.2615 22.0006 11.1314 22.0006 11C22.0006 10.8686 21.9747 10.7385 21.9244 10.6171C21.8741 10.4957 21.8004 10.3854 21.7075 10.2925L11.7075 0.292493C11.6146 0.199517 11.5043 0.125758 11.3829 0.0754337C11.2615 0.0251094 11.1314 -0.000793457 11 -0.000793457C10.8686 -0.000793457 10.7385 0.0251094 10.6171 0.0754337C10.4957 0.125758 10.3854 0.199517 10.2925 0.292493L0.292507 10.2925C0.104866 10.4801 -0.000549316 10.7346 -0.000549316 11C-0.000549316 11.2654 0.104866 11.5199 0.292507 11.7075C0.480147 11.8951 0.734643 12.0006 1.00001 12.0006C1.26537 12.0006 1.51987 11.8951 1.70751 11.7075Z"/>
</svg>
