<svg width="24" height="25" viewBox="0 0 24 25" fill="none" xmlns="http://www.w3.org/2000/svg">
<path d="M23.6484 22.5284C23.7598 22.6399 23.8483 22.7723 23.9086 22.918C23.9689 23.0636 24 23.2197 24 23.3774C24 23.5351 23.9689 23.6912 23.9086 23.8369C23.8483 23.9825 23.7598 24.1149 23.6484 24.2264C23.5369 24.3378 23.4045 24.4263 23.2588 24.4866C23.1132 24.5469 22.9571 24.578 22.7994 24.578C22.6417 24.578 22.4856 24.5469 22.3399 24.4866C22.1943 24.4263 22.0619 24.3378 21.9504 24.2264L12 14.2744L2.04955 24.2264C1.8244 24.4515 1.51902 24.578 1.2006 24.578C0.882181 24.578 0.576804 24.4515 0.351648 24.2264C0.126491 24.0012 6.2768e-09 23.6958 0 23.3774C-6.2768e-09 23.059 0.126491 22.7536 0.351648 22.5284L10.3036 12.578L0.351648 2.62756C0.126491 2.4024 0 2.09702 0 1.7786C0 1.46018 0.126491 1.15481 0.351648 0.929651C0.576804 0.704494 0.882181 0.578003 1.2006 0.578003C1.51902 0.578003 1.8244 0.704494 2.04955 0.929651L12 10.8816L21.9504 0.929651C22.1756 0.704494 22.481 0.578003 22.7994 0.578003C23.1178 0.578003 23.4232 0.704494 23.6484 0.929651C23.8735 1.15481 24 1.46018 24 1.7786C24 2.09702 23.8735 2.4024 23.6484 2.62756L13.6964 12.578L23.6484 22.5284Z" fill="#333333"/>
</svg>
