<svg width="25" height="25" viewBox="0 0 25 25" fill="none" xmlns="http://www.w3.org/2000/svg">
<path d="M24.4175 6.1722L18.8325 0.585948C18.6468 0.400182 18.4263 0.252823 18.1836 0.152285C17.941 0.0517467 17.6809 0 17.4182 0C17.1555 0 16.8954 0.0517467 16.6527 0.152285C16.41 0.252823 16.1895 0.400182 16.0038 0.585948L0.590044 16.0009C0.403519 16.186 0.255636 16.4063 0.154993 16.649C0.0543502 16.8917 0.00295488 17.152 0.0037943 17.4147V23.0009C0.0037943 23.5314 0.214508 24.0401 0.589581 24.4152C0.964653 24.7902 1.47336 25.0009 2.00379 25.0009H7.59004C7.85278 25.0018 8.11307 24.9504 8.35577 24.8497C8.59847 24.7491 8.81875 24.6012 9.00379 24.4147L24.4175 9.00095C24.6033 8.81522 24.7507 8.59473 24.8512 8.35205C24.9517 8.10936 25.0035 7.84925 25.0035 7.58657C25.0035 7.32389 24.9517 7.06378 24.8512 6.8211C24.7507 6.57842 24.6033 6.35792 24.4175 6.1722ZM7.59004 23.0009H2.00379V17.4147L13.0038 6.4147L18.59 12.0009L7.59004 23.0009ZM20.0038 10.5859L14.4175 5.00095L17.4175 2.00095L23.0038 7.58595L20.0038 10.5859Z" fill="black"/>
</svg>
