<svg width="32" height="32" viewBox="0 0 32 32" fill="none" xmlns="http://www.w3.org/2000/svg">
<path d="M31.9987 16.0981C31.9987 7.26038 24.8357 0.0974121 15.9993 0.0974121C7.16296 0.0974121 0 7.26038 0 16.0981C0 24.0824 5.85091 30.7014 13.4992 31.9014V20.7223H9.43773V16.0967H13.4992V12.5726C13.4992 8.56176 15.8887 6.34701 19.5421 6.34701C21.2929 6.34701 23.1236 6.65902 23.1236 6.65902V10.5965H21.1075C19.1208 10.5965 18.5008 11.8299 18.5008 13.0953V16.0981H22.9383L22.2289 20.7236H18.5008V31.9027C26.1491 30.7027 32 24.0837 32 16.0981H31.9987Z" fill="#333333"/>
</svg>
