<svg width="32" height="32" viewBox="0 0 32 32" fill="none" xmlns="http://www.w3.org/2000/svg">
<path d="M16 0.39624C7.16 0.39624 0 7.56024 0 16.3962C0 23.4669 4.584 29.4629 10.94 31.5762C11.74 31.7269 12.0333 31.2322 12.0333 30.8069C12.0333 30.4269 12.02 29.4202 12.0133 28.0869C7.56267 29.0522 6.624 25.9402 6.624 25.9402C5.896 24.0936 4.844 23.6002 4.844 23.6002C3.39467 22.6082 4.956 22.6282 4.956 22.6282C6.56267 22.7402 7.40667 24.2762 7.40667 24.2762C8.83333 26.7229 11.152 26.0162 12.0667 25.6069C12.2107 24.5722 12.6227 23.8669 13.08 23.4669C9.52667 23.0669 5.792 21.6909 5.792 15.5602C5.792 13.8136 6.412 12.3869 7.43867 11.2669C7.25867 10.8629 6.71867 9.23624 7.57867 7.03224C7.57867 7.03224 8.91867 6.60291 11.9787 8.67224C13.2587 8.31624 14.6187 8.14024 15.9787 8.13224C17.3387 8.14024 18.6987 8.31624 19.9787 8.67224C23.0187 6.60291 24.3587 7.03224 24.3587 7.03224C25.2187 9.23624 24.6787 10.8629 24.5187 11.2669C25.5387 12.3869 26.1587 13.8136 26.1587 15.5602C26.1587 21.7069 22.4187 23.0602 18.8587 23.4536C19.4187 23.9336 19.9387 24.9149 19.9387 26.4136C19.9387 28.5549 19.9187 30.2749 19.9187 30.7949C19.9187 31.2149 20.1987 31.7149 21.0187 31.5549C27.42 29.4562 32 23.4562 32 16.3962C32 7.56024 24.836 0.39624 16 0.39624Z" fill="#333333"/>
</svg>
