<svg width="32" height="28" viewBox="0 0 32 28" fill="none" xmlns="http://www.w3.org/2000/svg">
<path d="M23.1429 0C20.1929 0 17.61 1.26857 16 3.41286C14.39 1.26857 11.8071 0 8.85714 0C6.5089 0.00264677 4.25758 0.936658 2.59712 2.59712C0.936658 4.25758 0.00264677 6.5089 0 8.85714C0 18.8571 14.8271 26.9514 15.4586 27.2857C15.625 27.3752 15.811 27.4221 16 27.4221C16.189 27.4221 16.375 27.3752 16.5414 27.2857C17.1729 26.9514 32 18.8571 32 8.85714C31.9974 6.5089 31.0633 4.25758 29.4029 2.59712C27.7424 0.936658 25.4911 0.00264677 23.1429 0Z" fill="#333333"/>
</svg>
