<svg width="32" height="28" viewBox="0 0 32 28" fill="none" xmlns="http://www.w3.org/2000/svg">
<path d="M23.1429 0C20.1929 0 17.61 1.26857 16 3.41286C14.39 1.26857 11.8071 0 8.85714 0C6.5089 0.00264677 4.25758 0.936658 2.59712 2.59712C0.936658 4.25758 0.00264677 6.5089 0 8.85714C0 18.8571 14.8271 26.9514 15.4586 27.2857C15.625 27.3752 15.811 27.4221 16 27.4221C16.189 27.4221 16.375 27.3752 16.5414 27.2857C17.1729 26.9514 32 18.8571 32 8.85714C31.9974 6.5089 31.0633 4.25758 29.4029 2.59712C27.7424 0.936658 25.4911 0.00264677 23.1429 0ZM16 24.9714C13.3914 23.4514 2.28571 16.5271 2.28571 8.85714C2.28798 7.11499 2.98106 5.44484 4.21295 4.21295C5.44484 2.98106 7.11499 2.28798 8.85714 2.28571C11.6357 2.28571 13.9686 3.76571 14.9429 6.14286C15.029 6.35247 15.1754 6.53175 15.3637 6.65793C15.5519 6.7841 15.7734 6.85147 16 6.85147C16.2266 6.85147 16.4481 6.7841 16.6363 6.65793C16.8246 6.53175 16.971 6.35247 17.0571 6.14286C18.0314 3.76143 20.3643 2.28571 23.1429 2.28571C24.885 2.28798 26.5552 2.98106 27.7871 4.21295C29.0189 5.44484 29.712 7.11499 29.7143 8.85714C29.7143 16.5157 18.6057 23.45 16 24.9714Z" fill="#333333"/>
</svg>
