<svg width="32" height="32" viewBox="0 0 32 32" fill="none" xmlns="http://www.w3.org/2000/svg">
<path d="M16 0C11.6533 0 11.1107 0.02 9.404 0.096C7.7 0.176 6.54 0.444 5.52 0.84C4.468 1.248 3.57467 1.796 2.68533 2.68533C1.796 3.57467 1.24667 4.46667 0.84 5.52C0.444 6.54 0.174667 7.7 0.096 9.404C0.016 11.1107 0 11.6533 0 16C0 20.3467 0.02 20.8893 0.096 22.596C0.176 24.2987 0.444 25.46 0.84 26.48C1.24172 27.5478 1.87146 28.5152 2.68533 29.3147C3.48437 30.1291 4.45186 30.7589 5.52 31.16C6.54133 31.5547 7.70133 31.8253 9.404 31.904C11.1107 31.984 11.6533 32 16 32C20.3467 32 20.8893 31.98 22.596 31.904C24.2987 31.824 25.46 31.5547 26.48 31.16C27.5476 30.7578 28.5148 30.1281 29.3147 29.3147C30.1294 28.5159 30.7592 27.5483 31.16 26.48C31.5547 25.46 31.8253 24.2987 31.904 22.596C31.984 20.8893 32 20.3467 32 16C32 11.6533 31.98 11.1107 31.904 9.404C31.824 7.70133 31.5547 6.53867 31.16 5.52C30.7581 4.45229 30.1284 3.48497 29.3147 2.68533C28.5162 1.87019 27.5485 1.24025 26.48 0.84C25.46 0.444 24.2987 0.174667 22.596 0.096C20.8893 0.016 20.3467 0 16 0ZM16 2.88C20.2707 2.88 20.78 2.90133 22.4667 2.97467C24.0267 3.048 24.8733 3.30667 25.436 3.528C26.1853 3.81733 26.716 4.164 27.2787 4.72267C27.8373 5.28267 28.184 5.81467 28.4733 6.564C28.692 7.12667 28.9533 7.97333 29.024 9.53333C29.1 11.2213 29.1173 11.728 29.1173 16C29.1173 20.272 29.0973 20.78 29.0187 22.4667C28.9373 24.0267 28.6773 24.8733 28.4573 25.436C28.1971 26.1303 27.7879 26.7593 27.2587 27.2787C26.7415 27.8084 26.113 28.2165 25.4187 28.4733C24.8587 28.692 23.9987 28.9533 22.4387 29.024C20.74 29.1 20.24 29.1173 15.96 29.1173C11.6787 29.1173 11.1787 29.0973 9.48133 29.0187C7.92 28.9373 7.06 28.6773 6.5 28.4573C5.80521 28.2003 5.1769 27.7907 4.66133 27.2587C4.12611 26.745 3.71562 26.1156 3.46133 25.4187C3.24133 24.8587 2.98267 23.9987 2.90133 22.4387C2.84133 20.7587 2.82 20.24 2.82 15.98C2.82 11.7187 2.84133 11.1987 2.90133 9.49867C2.98267 7.93867 3.24133 7.08 3.46133 6.52C3.74133 5.76 4.1 5.24 4.66133 4.67867C5.22 4.12 5.74133 3.76 6.5 3.48133C7.06 3.26 7.90133 3 9.46133 2.92C11.1613 2.86 11.6613 2.84 15.94 2.84L16 2.88ZM16 7.784C14.9211 7.784 13.8527 7.99651 12.8559 8.40941C11.8591 8.8223 10.9533 9.42748 10.1904 10.1904C9.42748 10.9533 8.8223 11.8591 8.40941 12.8559C7.99651 13.8527 7.784 14.9211 7.784 16C7.784 17.0789 7.99651 18.1473 8.40941 19.1441C8.8223 20.1409 9.42748 21.0467 10.1904 21.8096C10.9533 22.5725 11.8591 23.1777 12.8559 23.5906C13.8527 24.0035 14.9211 24.216 16 24.216C18.179 24.216 20.2688 23.3504 21.8096 21.8096C23.3504 20.2688 24.216 18.179 24.216 16C24.216 13.821 23.3504 11.7312 21.8096 10.1904C20.2688 8.64961 18.179 7.784 16 7.784ZM16 21.3333C13.0533 21.3333 10.6667 18.9467 10.6667 16C10.6667 13.0533 13.0533 10.6667 16 10.6667C18.9467 10.6667 21.3333 13.0533 21.3333 16C21.3333 18.9467 18.9467 21.3333 16 21.3333ZM26.4613 7.46C26.4428 7.95683 26.2324 8.42714 25.8744 8.77209C25.5163 9.11704 25.0385 9.30977 24.5413 9.30977C24.0442 9.30977 23.5663 9.11704 23.2083 8.77209C22.8502 8.42714 22.6399 7.95683 22.6213 7.46C22.6213 6.95078 22.8236 6.46243 23.1837 6.10236C23.5438 5.74229 24.0321 5.54 24.5413 5.54C25.0505 5.54 25.5389 5.74229 25.899 6.10236C26.259 6.46243 26.4613 6.95078 26.4613 7.46Z" fill="#333333"/>
</svg>
