<svg width="101" height="42" viewBox="0 0 101 42" fill="none" xmlns="http://www.w3.org/2000/svg">
<path d="M26.7239 1L26.7239 41" stroke="#333333" stroke-width="1.49131" stroke-linecap="round"/>
<ellipse cx="26.7239" cy="21" rx="8.56163" ry="8.80504" fill="white" stroke="#333333" stroke-width="1.49131"/>
<path d="M16.637 18.8622H12.0156C11.9828 18.4689 11.8954 18.1122 11.7534 17.792C11.6168 17.4717 11.4256 17.1964 11.1798 16.9661C10.9394 16.7302 10.6472 16.5504 10.303 16.4268C9.95889 16.2976 9.56831 16.233 9.13129 16.233C8.36651 16.233 7.71919 16.424 7.1893 16.806C6.66489 17.188 6.26611 17.7358 5.99298 18.4493C5.7253 19.1627 5.59147 20.0195 5.59147 21.0195C5.59147 22.0757 5.72804 22.9605 6.00117 23.674C6.27977 24.3819 6.68127 24.9156 7.20569 25.2751C7.73011 25.6291 8.36105 25.806 9.09852 25.806C9.51914 25.806 9.89607 25.7527 10.2293 25.6459C10.5625 25.5336 10.852 25.3734 11.0979 25.1656C11.3437 24.9577 11.5431 24.7077 11.696 24.4156C11.8544 24.1178 11.961 23.7835 12.0156 23.4128L16.637 23.4465C16.5824 24.1768 16.383 24.9212 16.0389 25.6796C15.6947 26.4324 15.2058 27.1291 14.5721 27.7695C13.9439 28.4043 13.1655 28.9156 12.2368 29.3032C11.3082 29.6909 10.2293 29.8847 9.00019 29.8847C7.45971 29.8847 6.07765 29.5448 4.854 28.865C3.63582 28.1852 2.67166 27.1852 1.96151 25.865C1.25682 24.5448 0.90448 22.9296 0.90448 21.0195C0.90448 19.0981 1.26502 17.4802 1.98609 16.1655C2.70717 14.8453 3.67953 13.8481 4.90317 13.174C6.12681 12.4942 7.49248 12.1543 9.00019 12.1543C10.0599 12.1543 11.035 12.3032 11.9255 12.6009C12.8159 12.8987 13.597 13.3341 14.269 13.9071C14.9409 14.4745 15.4817 15.174 15.8914 16.0054C16.3011 16.8369 16.5496 17.7891 16.637 18.8622Z" fill="#333333"/>
<path d="M37.0689 12.3903H42.7391L46.6395 22.1656H46.8361L50.7365 12.3903H56.4068V29.6487H51.9492V19.6712H51.8181L48.0816 29.5139H45.394L41.6575 19.6038H41.5264V29.6487H37.0689V12.3903Z" fill="#333333"/>
<path d="M58.5659 12.3903H64.2362L68.1365 22.1656H68.3332L72.2335 12.3903H77.9038V29.6487H73.4463V19.6712H73.3152L69.5787 29.5139H66.891L63.1546 19.6038H63.0235V29.6487H58.5659V12.3903Z" fill="#333333"/>
<path d="M84.6188 12.3903V29.6487H80.063V12.3903H84.6188Z" fill="#333333"/>
<path d="M86.3191 16.1655V12.3903H100.904V16.1655H95.857V29.6487H91.3666V16.1655H86.3191Z" fill="#333333"/>
</svg>
