<svg width="32" height="26" viewBox="0 0 32 26" fill="none" xmlns="http://www.w3.org/2000/svg">
<path d="M31.9373 3.09348C30.7394 3.62093 29.4702 3.9691 28.1708 4.12677C29.5389 3.30447 30.5633 2.01492 31.0547 0.496258C29.7868 1.23623 28.3815 1.77487 26.8855 2.07486C25.8986 1.01948 24.5908 0.319494 23.1652 0.0836106C21.7397 -0.152273 20.2761 0.0891423 19.0018 0.770368C17.7275 1.45159 16.7138 2.53451 16.1181 3.85095C15.5224 5.16739 15.378 6.64369 15.7073 8.05061C10.2542 7.79329 5.42111 5.17473 2.18658 1.21623C1.59833 2.21594 1.2915 3.35617 1.29861 4.51609C1.29861 6.796 2.45856 8.79991 4.21582 9.9772C3.17435 9.94405 2.15587 9.66246 1.24528 9.1559V9.23723C1.24469 10.7524 1.76828 12.221 2.72723 13.3941C3.68617 14.5671 5.02141 15.3723 6.5064 15.673C5.54417 15.9308 4.53636 15.9695 3.55719 15.7863C3.97884 17.0901 4.7969 18.2299 5.89729 19.0466C6.99767 19.8633 8.32551 20.3162 9.6956 20.3421C7.37501 22.1632 4.50976 23.1516 1.55993 23.1486C1.03996 23.1486 0.521312 23.118 0 23.0593C3.00749 24.985 6.50441 26.0072 10.0756 26.0045C22.1471 26.0045 28.7401 16.0103 28.7401 7.35731C28.7401 7.07865 28.7401 6.79733 28.7201 6.51734C30.0081 5.59051 31.119 4.43983 32 3.12015L31.9373 3.09348Z" fill="#333333"/>
</svg>
